<?xml version="1.0" encoding="UTF-8"?><svg id="a" xmlns="http://www.w3.org/2000/svg" viewBox="0 0 956.09 690.6"><defs><style>.b{fill:#fff;}</style></defs><path class="b" d="M401.02,690.6c-33.72-10.5-66.4-20.68-99.7-31.04,14.32-46.05,28.47-91.55,42.74-137.43-2.52-1.52-4.73-2.91-6.99-4.22-100.19-57.84-200.42-115.61-300.54-173.56C11.82,330.05-1.03,308.27,.06,279.67c1.07-28,15.13-48.36,40.09-61.15,12.4-6.36,24.78-12.75,37.18-19.11C204.02,134.32,330.71,69.23,457.41,4.15c2.14-1.1,4.31-2.13,8.42-4.15-39.43,111.38-78.24,220.99-117.28,331.25-32.97-11.67-65.37-23.13-98.4-34.82,9.76-27.68,19.28-54.67,29.48-83.59-46.9,24.08-92.13,47.31-138.73,71.24,78.77,45.48,156.42,90.31,234.78,135.55,.87-2.37,1.69-4.32,2.31-6.32,34.06-109.35,68.11-218.7,102.12-328.06,1.05-3.37,1.64-6.88,2.51-10.3,11.67-45.97,62.84-67.73,104.39-44.01,52.82,30.16,105.4,60.75,158.08,91.16,58.24,33.62,116.53,67.15,174.69,100.9,23.49,13.63,36.14,34.31,36.31,61.5,.17,27.23-12.24,48.18-35.68,61.85-58.09,33.86-116.43,67.3-174.67,100.92-90.23,52.08-180.46,104.17-270.7,156.25-1.81,1.05-3.7,1.96-6.93,3.65,40.9-123.68,81.34-245.94,122.01-368.94,33.23,10.98,65.87,21.77,99.09,32.75-11.92,36.15-23.64,71.7-35.98,109.12,55.83-32.23,109.93-63.46,164.96-95.23-82.46-47.59-163.99-94.65-246.54-142.3-56.95,182.91-113.68,365.13-170.63,548.03Z"/></svg>